# xmcd
#
# Track frame offsets:
# 150
# 39758
# 75570
# 109455
# 120055
# 152753
# 168945
#
# Disc length: 2849 seconds
#
#
# Revision: 1
# Processed by: cddbd v1.5.1PL2 Copyright (c) Steve Scherf et al.
# Submitted via: FreeRIP 2.12 
#
DISCID=420b1f07
DTITLE=Zohar Argov - Ben Bli Bait
DYEAR=1998
DGENRE=Israeli
TTITLE0=String-Ben Bli Bait-En Medina Lahava-Ima Sheli
TTITLE1=String-Halom-Ten Lazman Lalechet
TTITLE2=String-Einaich Hachumot-Zachrini-Linda
TTITLE3=Kmo Shikor
TTITLE4=String-Habibi Diali-Durbaha
TTITLE5=Nagen li shir
TTITLE6=String-Galab Yachab(ashlaiot)-Eshal Eloaii-Haperach Begani
EXTD=
EXTT0=
EXTT1=
EXTT2=
EXTT3=
EXTT4=
EXTT5=
EXTT6=
PLAYORDER=
